<!-- Created with Inkscape (http://www.inkscape.org/) -->
<svg xmlns:inkscape="http://www.inkscape.org/namespaces/inkscape" xmlns:rdf="http://www.w3.org/1999/02/22-rdf-syntax-ns#" xmlns="http://www.w3.org/2000/svg" sodipodi:docname="Neues Dokument 8" height="100.43" width="131.2" version="1.1" xmlns:cc="http://creativecommons.org/ns#" xmlns:dc="http://purl.org/dc/elements/1.1/" inkscape:version="0.48.2 r9819" xmlns:sodipodi="http://sodipodi.sourceforge.net/DTD/sodipodi-0.dtd">
	<sodipodi:namedview bordercolor="#666666" inkscape:pageshadow="2" inkscape:window-y="125" fit-margin-left="0.2" pagecolor="#ffffff" fit-margin-top="0.2" inkscape:window-maximized="0" inkscape:zoom="0.35" inkscape:window-x="125" inkscape:window-height="455" showgrid="false" borderopacity="1.0" inkscape:current-layer="layer1" inkscape:cx="-35.82786" inkscape:cy="124.50022" fit-margin-right="0.2" fit-margin-bottom="0.2" inkscape:window-width="505" inkscape:pageopacity="0.0" inkscape:document-units="px"/>
	<metadata>
		<rdf:RDF>
			<cc:Work rdf:about="">
				<dc:format>image/svg+xml</dc:format>
				<dc:type rdf:resource="http://purl.org/dc/dcmitype/StillImage"/>
				<dc:title/>
			</cc:Work>
		</rdf:RDF>
	</metadata>
	<g inkscape:label="Ebene 1" inkscape:groupmode="layer" transform="translate(-385.82786,-556.4334)">
		<path style="color:black;enable-background:accumulate;" d="m425.72,656.66,52.989-0.01c-11.502-2.5978-17.756-6.3324-16.246-11.748-2.498-2.073-3.4658-4.3734,0-7.3322-1.1253-2.276-5.3109-4.5487,0.58372-6.7422,0.78085-9.2686,12.877,3.9513,16.711-2.1502-4.5408-0.59581-7.2403-2.7731-6.7064-4.0996,3.0834-7.6611,12.231,3.0796,19.727,0.46479-4.3604-1.1007-9.8936-6.1443-5.2166-7.7103,3.3647-1.1266,8.769,2.772,15.125,0.46012-12.269-3.1948-4.2965-13.109,9.6173-9.777-1.014-1.7006-2.595-3.1534-4.2658-3.8986-5.2908-2.3601-5.9202-3.588-5.0758-5.6992,1.9551-4.8875,11.308-9.0936,13.866-13.875-8.6382,5.2605-12.393-0.83541-9.5499-8.9743,1.5048-4.3084,7.7518-8.7608,8.5819-12.494-10.368,3.6676-16.121,14.705-17.716,18.438-1.0394,2.4326-6.3589-3.0517-8.2978-4.7834-2.7619,6.6335,11.761,23.902-4.3842,14.322,1.1211,5.3873,3.2165,8.6776,2.8532,11.393-0.81199,6.0687-7.3888,5.7833-7.9919,3.5325-1.1348,3.7017-9.8131,12.563-12.668,3.4475-2.6592,1.9358-4.2103,7.4246-5.493,9.4983-2.5037,0.3055-3.466-2.2494-2.8809-4.3962,0.34581-1.2685,2.9879-2.0333,1.732-3.1529-1.5483-1.3803-0.47316-2.5903,2.1354-3.5204,1.6739-4.6547,3.7039-2.1322,8.0015-3.051-3.953-1.9206-0.8409-3.9065,4.8347-4.1444-1.5407-2.1887-1.2474-4.094,3.5022-5.3094-1.9097-1.6588-2.3424-3.717,4.1918-4.9908-4.9418-2.0431-8.7426,1.5736-1.9668-4.7306-4.832-0.4544-6.8142,4.0418-4.6055-4.6487-4.4212,3.1727-6.2446,0.15702-3.6511-2.9069-0.0339-0.65812-1.4989,0.59594-2.3944,0.35316-1.7143-0.4648-2.1276-2.6896,5.3587-7.59-7.2297-0.943-11.066,8.497-10.896-1.4328-4.9186,6.2253-4.4672,4.105-4.5009-2.1404-6.2226,2.22-5.3687,9.6116-7.7957-0.41026-6.8742,1.2497,0.92351,12.071-9.5928,0.2354-1.4151,6.1157,4.6701,9.9377-5.4094,2.3264,0.77735,9.9383,5.5598,6.6422-8.1849,1.4153,5.5961,5.3049,8.19,9.4003,1.0958,6.9903,1.3689,3.4614,0.26972,4.7848-3.9888,3.3711,1.7401,6.1849,2.8512,6.1293-4.6055,4.1854,2.173,2.6632,6.3906,5.4019-1.0371,4.4111,3.0767,2.1334,8.5335,2.1881,2.043,6.4051,3.8811,1.0916,9.8894,1.9261,4.5725,4.1297,3.4487,1.1158,9.9656,1.189,6.3975,4.6291,4.8438,0.24824,8.6039,0.3665,6.1523,3.6302,3.3078,0.009,5.4897,0.87088,2.7239,3.8768,5.629,3.7182,2.1067,7.6558-0.91211,6.8044-2.2596-1.3061-1.8348-3.2637-2.286-4.3765-1.838-4.5338-3.4831-5.5382-3.9901-5.5278-1.0056,0.0211-0.16418,5.3635-5.7512,4.3254-3.5964-2.2257-3.7647-4.1517-6.1287-7.7991-7.7914,6.9645-8.1278-3.0718-6.2263-15.339-14.01,11.766-5.0171-5.3669-3.6712-13.642-11.36,15.19-13.008-12.965-28.402-13.906,16.829,20.36,14.806,26.805,1.6868,22.52,7.1945,8.5592,4.7431,3.8582,12.233,10.732,7.898,7.2473-8.7997,8.5531-7.0385,11.506,12.065-1.2515,22.244,5.3745,9.8603,10.611-4.9965,4.1493,9.6524-1.1862,13.145-1.2116,1.7384-0.013,7.3269,1.5586-3.9948,8.7791,7.4473,0.12073,9.565-2.973,12.856-3.6573,5.6284-1.1703,8.852,0.29397,1.5612,7.9063,4.8062-0.71018,19.184-6.0112,14.82,0.31009,3.2458,0.96225,7.1429,1.6836,0.68101,6.2366,5.3134,2.7767,3.7448,5.6585,0.19635,8.8778,7.5699,3.541-9.7781,8.3823-16.315,11.055z" sodipodi:nodetypes="ccccccscsccsscscsccscccssccccccccscccccccccccccccccssccccccsccscsccccc" inkscape:connector-curvature="0" fill="#a6b4c9"/>
		<path style="color:black;enable-background:accumulate;" d="m399.43,577.45c-0.0692-0.3427,0.0694-0.68819,0.71126-0.45392,4.7114,8.6487,6.1124,20.042,10.807,26.9,5.5371,9.0337,16.079,11.437,25.728,15.023,3.9189,1.4955,7.9358,3.6858,9.9504,6.0534,0.63971,0.75188,0.6335,0.70657,0.34042,1.0456-0.37584,0.43461-1.4101-0.0853-1.8682-0.18828-6.5952-2.057-7.1028,0.67564-9.7566,0.35329-2.0471-0.24859,0.20857-2.2957,3.2398-2.9717-4.9359-3.2187-7.7698-3.3626-10.863-3.7972-1.5097,0.17489-4.35,1.7645-5.2894,1.4032-0.99397-0.3822,1.0256-1.4996,2.812-2.7241l-8.671-3.8797c-2.1421,0.42159-4.1058,1.8658-6.5747,1.8986-0.65884-1.8023,2.8703-2.6715,4.1926-3.7972-1.8726-1.1999-3.7666-2.3532-5.1454-4.6226l-7.4323-0.99058,6.0982-0.99053-5.616-13.217c-1.1773-1.0758-7.2629-3.5656-5.795-4.5551,0.68612-0.46259,5.1181,2.4386,5.543,1.6238,0.5412-4.2768-0.63185-8.4377-2.4101-12.114z" sodipodi:nodetypes="ccccsscsccsccccccccscc" inkscape:connector-curvature="0" fill="#1a3668"/>
		<path style="color:black;enable-background:accumulate;" d="m504.97,576.94c0.0623-0.34386-0.0831-0.68701-0.72024-0.4433-4.5379,8.7182-5.7108,20.13-10.267,27.059-5.3557,9.1155-15.848,11.677-25.423,15.407-3.8884,1.5541-7.861,3.8042-9.8279,6.202-0.62457,0.76126-0.61928,0.71589-0.31945,1.0505,0.38448,0.42899,1.4082-0.10696,1.8641-0.21623,6.5531-2.1557,7.1152,0.5689,9.7624,0.2068,2.0418-0.27931-0.25442-2.2922-3.2986-2.9226,4.871-3.2924,7.7013-3.4787,10.785-3.9597,1.5129,0.15226,4.3848,1.6991,5.3168,1.3238,0.98619-0.39708-1.0554-1.484-2.8661-2.6815l8.5921-4.0092c2.1502,0.38939,4.1426,1.804,6.6117,1.7997,0.6227-1.8118-2.9232-2.628-4.2679-3.7336,1.8483-1.2278,3.719-2.4093,5.0523-4.6991l7.5207-1.7646-6.2265-0.23631,5.351-13.299c1.1556-1.0933,8.1739-3.0115,6.6865-3.9789-0.69526-0.4522-6.0518,1.8525-6.4929,1.0443-0.62664-4.2682,0.46303-8.4461,2.1675-12.149z" sodipodi:nodetypes="ccccsscsccsccccccccscc" inkscape:connector-curvature="0" fill="#1a3668"/>
		<path style="color:black;enable-background:accumulate;" d="m451.79,609.58c-0.23023,11.145-0.27828,32.777,0.20384,43.262,0.0339,0.73512,1.2944,1.138,2.548,0,0.52275-1.2668-0.0807-1.8017-0.61151-2.3839-0.79177-1.9221-0.22656-2.6684,0-3.7082l2.1404-1.2362-1.7326-1.7658c-2.0369-3.3449-0.0285-5.5215,2.3442-7.593l-1.9364-1.4127c-2.4443-2.9936-0.95094-5.1111,1.4269-7.0633l-1.5288-2.2073c-0.9737-2.1382-1.1468-4.2475,1.1211-6.2687,0.18838-0.36791,0.37324-0.73574-0.10192-1.1036-3.6096-2.4425-0.6444-5.903-0.71342-8.5202-0.0643-0.91065-3.1406-0.91226-3.1595,0z" sodipodi:nodetypes="ssccccccccccccs" inkscape:connector-curvature="0" fill="#1a3668"/>
		<path style="color:black;enable-background:accumulate;" d="m446.3,605.73c-1.6725-0.16235-2.3324-1.203-0.73986-1.4198,2.8951,0.11056,4.8432,1.0415,6.7738,1.9877,0.50986,0.18982,1.0197,0.25427,1.5296,0,2.1309-0.67729,4.1934-2.1277,6.404-1.9074,0.9531,0.27588,1.0597,1.236,0.0755,1.1941-4.1231,1.0578-4.8999,1.5537-6.0998,2.2278-1.2104,0.42033-1.5792,0.12523-2.3464,0-2.2814-1.2067-3.4983-1.4294-5.5969-2.0822z" sodipodi:nodetypes="ccccccccc" inkscape:connector-curvature="0" fill="#1a3668"/>
		<path style="color:black;enable-background:accumulate;" d="m445.63,603.37,2.2387-2.4076,1.6984-0.0339c-0.48237-1.7279-1.4158-2.4736-2.1616-3.4443-2.2688,1.1317-2.3709,3.3359-1.7756,5.8854z" sodipodi:nodetypes="ccccc" inkscape:connector-curvature="0" fill="#1a3668"/>
		<path style="color:black;enable-background:accumulate;" d="m452.7,603.97,2.6855-2.8445,2.0373-0.0401c-0.57864-2.0414-1.6984-2.9225-2.5929-4.069-2.7215,1.3369-2.8441,3.941-2.1299,6.953z" sodipodi:nodetypes="ccccc" inkscape:connector-curvature="0" fill="#1a3668"/>
		<path style="color:black;enable-background:accumulate;" d="m460.49,603.64,2.6855-2.8444,2.0373-0.0401c-0.57863-2.0414-1.6984-2.9225-2.5929-4.0691-2.7215,1.337-2.8441,3.9411-2.1299,6.953z" sodipodi:nodetypes="ccccc" inkscape:connector-curvature="0" fill="#1a3668"/>
		<path style="color:black;enable-background:accumulate;" d="m465.79,598.49,3.0048-2.5938,2.0314,0.1398c-0.33654-2.0818-1.3473-3.0566-2.103-4.2759-2.8642,1.0908-3.2911,3.6707-2.9332,6.7299z" sodipodi:nodetypes="ccccc" inkscape:connector-curvature="0" fill="#1a3668"/>
		<path style="color:black;enable-background:accumulate;" d="m471.85,594.02,1.0428-3.0464,1.4907-0.56173c-1.1013-1.5355-2.2187-1.9721-3.2576-2.6868-1.5672,1.8109-0.79769,3.9932,0.72422,6.295z" sodipodi:nodetypes="ccccc" inkscape:connector-curvature="0" fill="#1a3668"/>
		<path style="color:black;enable-background:accumulate;" d="m467.72,589.45,1.2535-2.9862,1.5272-0.48264c-0.99213-1.5903-2.077-2.0849-3.0643-2.8525-1.6907,1.7254-1.0748,3.9441,0.2837,6.3214z" sodipodi:nodetypes="ccccc" inkscape:connector-curvature="0" fill="#1a3668"/>
		<path style="color:black;enable-background:accumulate;" d="m463.55,593.95,2.0446-2.6382,1.6163-0.15084c-0.52227-1.7503-1.4384-2.4559-2.184-3.4065-2.1195,1.3234-2.1366,3.6052-1.4768,6.1955z" sodipodi:nodetypes="ccccc" inkscape:connector-curvature="0" fill="#1a3668"/>
		<path style="color:black;enable-background:accumulate;" d="m458.57,598.22,2.406-2.3984,1.6254,0.0243c-0.26801-1.7928-1.0762-2.5913-1.6801-3.6146-2.2924,1.0857-2.6358,3.3481-2.3515,5.9892z" sodipodi:nodetypes="ccccc" inkscape:connector-curvature="0" fill="#1a3668"/>
		<path style="color:black;enable-background:accumulate;" d="m450.62,599.17,2.3532-2.9969,1.858-0.17514c-0.59834-1.9834-1.6506-2.7812-2.5065-3.8573-2.4378,1.5061-2.4601,4.0934-1.7047,7.0293z" sodipodi:nodetypes="ccccc" inkscape:connector-curvature="0" fill="#1a3668"/>
		<path style="color:black;enable-background:accumulate;" d="m448.16,595.84,1.123-3.4914,1.6957-0.68091c-1.2992-1.7133-2.5907-2.1777-3.7991-2.96-1.7537,2.1025-0.81941,4.56,0.98033,7.1322z" sodipodi:nodetypes="ccccc" inkscape:connector-curvature="0" fill="#1a3668"/>
		<path style="color:black;enable-background:accumulate;" d="m444.82,591.53,0.55053-2.7504,1.3112-0.66053c-1.2383-1.1941-2.3399-1.4387-3.4066-1.9323-1.2099,1.7469-0.1913,3.5378,1.5448,5.3431z" sodipodi:nodetypes="ccccc" inkscape:connector-curvature="0" fill="#1a3668"/>
		<path style="color:black;enable-background:accumulate;" d="m441.22,588.73,0.50589-2.2234,1.0462-0.51095c-0.93903-0.99418-1.7964-1.2144-2.6198-1.6361-0.99601,1.3954-0.24536,2.8702,1.0677,4.3705z" sodipodi:nodetypes="ccccc" inkscape:connector-curvature="0" fill="#1a3668"/>
		<path style="color:black;enable-background:accumulate;" d="m438.22,587.11,0.10333-2.2645,0.94255-0.64483c-1.1051-0.85659-1.9914-0.95942-2.8801-1.2659-0.73523,1.5119,0.2694,2.8684,1.8342,4.1751z" sodipodi:nodetypes="ccccc" inkscape:connector-curvature="0" fill="#1a3668"/>
		<path style="color:black;enable-background:accumulate;" d="m443.14,599.71,1.9398-2.5951,1.6853-0.18526c-0.68578-1.6755-1.7032-2.3337-2.5606-3.2325-2.1217,1.3286-1.9607,3.5301-1.0645,6.0127z" sodipodi:nodetypes="ccccc" inkscape:connector-curvature="0" fill="#1a3668"/>
		<path style="color:black;enable-background:accumulate;" d="m440.51,596.15,1.3426-2.5568,1.5396-0.38181c-0.9422-1.4009-2.0105-1.8549-2.9728-2.5432-1.7408,1.4543-1.1934,3.3905,0.0906,5.4818z" sodipodi:nodetypes="ccccc" inkscape:connector-curvature="0" fill="#1a3668"/>
		<path style="color:black;enable-background:accumulate;" d="m437.08,592.9,0.75012-2.267,1.2814-0.51606c-1.0542-1.02-2.0621-1.2494-3.0161-1.6843-1.2799,1.419-0.48214,2.9286,0.98462,4.4673z" sodipodi:nodetypes="ccccc" inkscape:connector-curvature="0" fill="#1a3668"/>
		<path style="color:black;enable-background:accumulate;" d="m433.75,590.64,0.56051-1.9283,0.95748-0.43894c-0.78772-0.86763-1.5408-1.0627-2.2537-1.4327-0.95636,1.207-0.36025,2.4911,0.73574,3.8z" sodipodi:nodetypes="ccccc" inkscape:connector-curvature="0" fill="#1a3668"/>
		<path style="color:black;enable-background:accumulate;" d="m431.94,594.17,0.19591-1.8002,0.86374-0.51458c-0.93827-0.67851-1.7177-0.75839-2.49-1.0001-0.72029,1.2034,0.10603,2.2794,1.4303,3.3149z" sodipodi:nodetypes="ccccc" inkscape:connector-curvature="0" fill="#1a3668"/>
		<path style="color:black;enable-background:accumulate;" d="m434.76,596.7,0.20139-1.945,0.88788-0.5561c-0.96447-0.73309-1.7657-0.81943-2.5596-1.0806-0.74045,1.3002,0.10898,2.463,1.4703,3.5818z" sodipodi:nodetypes="ccccc" inkscape:connector-curvature="0" fill="#1a3668"/>
		<path style="color:black;enable-background:accumulate;" d="m437.25,599.46,0.63227-2.2265,1.0896-0.49626c-0.90044-1.0147-1.7592-1.2502-2.5728-1.6877-1.0857,1.3861-0.40224,2.8808,0.85092,4.4103z" sodipodi:nodetypes="ccccc" inkscape:connector-curvature="0" fill="#1a3668"/>
		<path style="color:black;enable-background:accumulate;" d="m440.2,603,0.71048-2.5296,1.2243-0.56398c-1.0118-1.1528-1.9769-1.4204-2.8909-1.9174-1.22,1.5748-0.452,3.273,0.95616,5.0109z" sodipodi:nodetypes="ccccc" inkscape:connector-curvature="0" fill="#1a3668"/>
		<path style="color:black;enable-background:accumulate;" d="m460.38,590.01,1.7196-2.8068,1.5897-0.29449c-0.72785-1.6942-1.7231-2.3142-2.5779-3.1932-1.9507,1.5057-1.6961,3.7768-0.73142,6.2944z" sodipodi:nodetypes="ccccc" inkscape:connector-curvature="0" fill="#1a3668"/>
		<path style="color:black;enable-background:accumulate;" d="m456.17,594.33,1.7479-2.4987,1.4555-0.18671c-0.5388-1.6028-1.3939-2.2285-2.1042-3.0854-1.8658,1.2853-1.7944,3.3953-1.0992,5.7709z" sodipodi:nodetypes="ccccc" inkscape:connector-curvature="0" fill="#1a3668"/>
		<path style="color:black;enable-background:accumulate;" d="m454.02,591.41,0.84975-2.8274,1.333-0.53959c-1.0456-1.4023-2.0715-1.7898-3.0352-2.4351-1.3633,1.6941-0.59817,3.6982,0.85234,5.8021z" sodipodi:nodetypes="ccccc" inkscape:connector-curvature="0" fill="#1a3668"/>
		<path style="color:black;enable-background:accumulate;" d="m449.93,588.96,0.55359-2.8821,1.2717-0.641c-1.1865-1.3154-2.2486-1.6216-3.275-2.1894-1.1825,1.7932-0.21287,3.7297,1.4496,5.7124z" sodipodi:nodetypes="ccccc" inkscape:connector-curvature="0" fill="#1a3668"/>
		<path style="color:black;enable-background:accumulate;" d="m445.84,585.69,0.50868-2.3434,1.1685-0.5212c-1.0903-1.0695-2.066-1.3185-3.0092-1.7802-1.0865,1.4579-0.1956,3.0326,1.332,4.6449z" sodipodi:nodetypes="ccccc" inkscape:connector-curvature="0" fill="#1a3668"/>
		<path style="color:black;enable-background:accumulate;" d="m442.3,583.44,0.10332-2.2645,0.94256-0.64491c-1.105-0.8565-1.9914-0.95937-2.8801-1.2658-0.73524,1.5119,0.26939,2.8684,1.8342,4.1751z" sodipodi:nodetypes="ccccc" inkscape:connector-curvature="0" fill="#1a3668"/>
		<path style="color:black;enable-background:accumulate;" d="m444.85,578.53-0.30653-1.9588,0.72315-0.68227c-1.1314-0.58485-1.9362-0.55222-2.7788-0.69418-0.38666,1.3986,0.74359,2.4266,2.3623,3.335z" sodipodi:nodetypes="ccccc" inkscape:connector-curvature="0" fill="#1a3668"/>
		<path style="color:black;enable-background:accumulate;" d="m449.13,580.79,0.21521-2.3772,1.0972-0.62686c-1.2166-0.96193-2.2175-1.1186-3.2126-1.4899-0.8995,1.5506,0.18148,3.0333,1.9001,4.494z" sodipodi:nodetypes="ccccc" inkscape:connector-curvature="0" fill="#1a3668"/>
		<path style="color:black;enable-background:accumulate;" d="m453.45,583.6,0.21522-2.8008,1.0972-0.73866c-1.2166-1.1332-2.2175-1.318-3.2126-1.7552-0.8995,1.8269,0.18147,3.5738,1.9001,5.2948z" sodipodi:nodetypes="ccccc" inkscape:connector-curvature="0" fill="#1a3668"/>
		<path style="color:black;enable-background:accumulate;" d="m457.75,586.29,0.62225-2.7547,1.1962-0.6125c-1.0414-1.2575-2.0074-1.5504-2.9305-2.0931-1.1589,1.7136-0.34159,3.5648,1.1121,5.4603z" sodipodi:nodetypes="ccccc" inkscape:connector-curvature="0" fill="#1a3668"/>
		<path style="color:black;enable-background:accumulate;" d="m464.54,584.96,0.56717-2.4852,1.0903-0.55267c-0.94918-1.1346-1.8297-1.3987-2.671-1.8884-1.0563,1.5461-0.31133,3.2162,1.0136,4.9264z" sodipodi:nodetypes="ccccc" inkscape:connector-curvature="0" fill="#1a3668"/>
		<path style="color:black;enable-background:accumulate;" d="m460.9,581.54,0.16348-2.1391,0.94594-0.57177c-1.0651-0.85617-1.9352-0.98976-2.8022-1.3164-0.76536,1.4009,0.18718,2.7264,1.6928,4.0274z" sodipodi:nodetypes="ccccc" inkscape:connector-curvature="0" fill="#1a3668"/>
		<path style="color:black;enable-background:accumulate;" d="m456.57,578.94,0.15529-1.891,0.8985-0.50539c-1.0117-0.75684-1.8382-0.87499-2.6617-1.1636-0.72698,1.2384,0.1778,2.41,1.608,3.5601z" sodipodi:nodetypes="ccccc" inkscape:connector-curvature="0" fill="#1a3668"/>
		<path style="color:black;enable-background:accumulate;" d="m452.53,576.4,0.1143-1.182,0.66135-0.31602c-0.74466-0.47303-1.353-0.54691-1.9592-0.72737-0.53511,0.77419,0.13085,1.5064,1.1835,2.2254z" sodipodi:nodetypes="ccccc" inkscape:connector-curvature="0" fill="#1a3668"/>
		<path style="color:black;enable-background:accumulate;" d="m463.09,604.88c0.46434-0.55515,0.89784-1.1566,1.9773-1.1813,0.21617-0.34945-0.0167-0.44542-0.27026-0.52959-1.1932-0.0549-2.5964,1.5974-1.7071,1.711z" sodipodi:nodetypes="cccc" inkscape:connector-curvature="0" fill="#1a3668"/>
		<path style="color:black;enable-background:accumulate;" d="m470.52,599.31c-0.60264,0.4444-1.188,0.93994-2.2436,0.74302-0.30538,0.29524-0.10525,0.43609,0.1181,0.56992,1.1445,0.29725,2.9586-1.0205,2.1256-1.3129z" sodipodi:nodetypes="cccc" inkscape:connector-curvature="0" fill="#1a3668"/>
		<path style="color:black;enable-background:accumulate;" d="m473.18,597.13c0.37444-0.50882,0.72404-1.06,1.5946-1.0827,0.17431-0.32029-0.0135-0.40819-0.21795-0.48548-0.96223-0.05-2.0937,1.4641-1.3766,1.5682z" sodipodi:nodetypes="cccc" inkscape:connector-curvature="0" fill="#1a3668"/>
		<path style="color:black;enable-background:accumulate;" d="m476.44,592.56c0.37444-0.50883,0.72403-1.06,1.5946-1.0828,0.17433-0.3203-0.0135-0.40815-0.21794-0.48543-0.96223-0.0503-2.0937,1.4641-1.3766,1.5682z" sodipodi:nodetypes="cccc" inkscape:connector-curvature="0" fill="#1a3668"/>
		<path style="color:black;enable-background:accumulate;" d="m476.93,589.13c0.19408-0.57957,0.35052-1.1937,1.1785-1.4277,0.0633-0.34985-0.14553-0.38843-0.36679-0.4127-0.93956,0.18664-1.5337,1.9152-0.81174,1.8404z" sodipodi:nodetypes="cccc" inkscape:connector-curvature="0" fill="#1a3668"/>
		<path style="color:black;enable-background:accumulate;" d="m474.88,584.57c0.23438-0.35647,0.19613-0.71948,0.40131-1.0769-0.10746-0.21387-0.31619-0.18961-0.52957-0.15439-0.76926,0.31502-0.49516,1.4343,0.12826,1.2313z" sodipodi:nodetypes="cccc" inkscape:connector-curvature="0" fill="#1a3668"/>
		<path style="color:black;enable-background:accumulate;" d="m471.01,580.75c0.23438-0.41743,0.19613-0.84233,0.40132-1.2608-0.10747-0.25037-0.31619-0.22198-0.52957-0.18072-0.76927,0.36877-0.49517,1.679,0.12824,1.4415z" sodipodi:nodetypes="cccc" inkscape:connector-curvature="0" fill="#1a3668"/>
		<path style="color:black;enable-background:accumulate;" d="m467.75,576.38c0.23438-0.51873,0.19612-1.047,0.40131-1.5671-0.10746-0.31118-0.3162-0.27596-0.52957-0.22467-0.76926,0.45838-0.49516,2.0871,0.12826,1.7918z" sodipodi:nodetypes="cccc" inkscape:connector-curvature="0" fill="#1a3668"/>
		<path style="color:black;enable-background:accumulate;" d="m458.7,574.52c0.36939,0.4561,0.89862,0.72051,1.2855,1.1563,0.35875,0.0943,0.44019-0.0752,0.50888-0.25804-0.0156-0.8088-1.7337-1.5114-1.7943-0.89824z" sodipodi:nodetypes="cccc" inkscape:connector-curvature="0" fill="#1a3668"/>
		<path style="color:black;enable-background:accumulate;" d="m462.32,576.28c0.36938,0.45611,0.65118,0.86343,1.038,1.2991,3.0702-0.14802-0.86723-2.1976-1.038-1.2991z" sodipodi:nodetypes="ccc" inkscape:connector-curvature="0" fill="#1a3668"/>
		<path style="color:black;enable-background:accumulate;" d="m465.89,578.64c0.34009,0.60968,0.58102,1.1444,0.95018,1.7339,4.0515,0.46853-0.44792-2.7477-0.95018-1.7339z" sodipodi:nodetypes="ccc" inkscape:connector-curvature="0" fill="#1a3668"/>
		<path style="color:black;enable-background:accumulate;" d="m469.77,581.23c0.60567,0.0927,1.1083,2.1097,0.64376,2.6368-0.59534,0.51892-0.77379,0.017-0.75816-1.1083-0.2031-0.69435-1.2852-1.5241,0.11439-1.5285z" sodipodi:nodetypes="cccc" inkscape:connector-curvature="0" fill="#1a3668"/>
		<path style="color:black;enable-background:accumulate;" d="m472.48,584.45c-0.47466,0.36873-0.38188,0.8028-0.46909,1.3207,0.39886,0.59043,0.78248,0.67986,1.223,2.6415,0.2122,0.0842,0.42441,0.12214,0.63662,0.0149,0.27024-0.59987,0.30965-1.1998,1.0722-1.7997-0.54965-1.1186-1.7984-1.8508-2.4626-2.1769z" sodipodi:nodetypes="cccccc" inkscape:connector-curvature="0" fill="#1a3668"/>
		<path style="color:black;enable-background:accumulate;" d="m437.5,577.69c0.36938,0.83594,0.89861,1.321,1.2854,2.1197,0.35876,0.17322,0.44019-0.13873,0.50889-0.47314-0.0156-1.4827-1.7337-2.771-1.7943-1.6466z" sodipodi:nodetypes="cccc" inkscape:connector-curvature="0" fill="#1a3668"/>
		<path style="color:black;enable-background:accumulate;" d="m434.4,580.81c0.36939,0.83612,0.89864,1.3209,1.2855,2.1197,0.35876,0.17331,0.4402-0.13873,0.5089-0.47296-0.0156-1.4828-1.7337-2.771-1.7943-1.6467z" sodipodi:nodetypes="cccc" inkscape:connector-curvature="0" fill="#1a3668"/>
		<path style="color:black;enable-background:accumulate;" d="m431.09,583.18c0.56087,0.75186,0.70018,1.4082,1.2161,2.1502-0.0504,0.35318-0.38916,0.22594-0.74121,0.0762-1.3722-0.88625-1.5583-2.8482-0.47485-2.2268z" sodipodi:nodetypes="cccc" inkscape:connector-curvature="0" fill="#1a3668"/>
		<path style="color:black;enable-background:accumulate;" d="m428.3,587.23c0.64963,0.54676,0.92303,1.0889,1.5326,1.6355,0.042,0.31492-0.27238,0.26733-0.60319,0.2032-1.362-0.51321-1.9861-2.1762-0.9294-1.8388z" sodipodi:nodetypes="cccc" inkscape:connector-curvature="0" fill="#1a3668"/>
		<path style="color:black;enable-background:accumulate;" d="m428.53,592.21c-0.8097-0.35179-1.259-0.79735-2.0304-1.1594-0.14963-0.28925,0.16672-0.32603,0.50445-0.3512,1.4772,0.13365,2.6509,1.5564,1.526,1.5106z" sodipodi:nodetypes="cccc" inkscape:connector-curvature="0" fill="#1a3668"/>
		<path style="color:black;enable-background:accumulate;" d="m428.92,595.02c0.8611,0.24349,1.3819,0.62608,2.2069,0.88468,0.19762,0.26675-0.10887,0.34389-0.4385,0.41232-1.4837,0.058-2.8888-1.1974-1.7685-1.297z" sodipodi:nodetypes="cccc" inkscape:connector-curvature="0" fill="#1a3668"/>
		<path style="color:black;enable-background:accumulate;" d="m432.09,599.97c0.77041-0.15672,1.5525-0.36592,2.3877,0.22709,0.42737-0.14177,0.32368-0.34623,0.19555-0.55368-0.86131-0.71749-3.1699-0.26326-2.5832,0.32659z" sodipodi:nodetypes="cccc" inkscape:connector-curvature="0" fill="#1a3668"/>
		<path style="color:black;enable-background:accumulate;" d="m437.33,603.99c0.84564-0.1808,1.7041-0.42215,2.6208,0.262,0.46911-0.16351,0.3553-0.39954,0.21464-0.63883-0.94542-0.82766-3.4796-0.30368-2.8354,0.37683z" sodipodi:nodetypes="cccc" inkscape:connector-curvature="0" fill="#1a3668"/>
		<path style="color:black;enable-background:accumulate;" d="m424.1,564.56c5.4704,5.2744,7.6552,5.2125,10.679,6.5137-2.9352-6.0556-8.0967-6.4444-10.679-6.5137z" sodipodi:nodetypes="ccc" inkscape:connector-curvature="0" fill="#a6b4c9"/>
		<path style="color:black;enable-background:accumulate;" d="m435.13,567.07c-0.49867-1.5134-3.071-9.4191-3.7375-5.5104-4.906-2.1873,2.0896,5.9056,3.7375,5.5104z" sodipodi:nodetypes="ccc" inkscape:connector-curvature="0" fill="#a6b4c9"/>
		<path style="color:black;enable-background:accumulate;" d="m440.87,568.41c-2.1057-6.2779-3.7727-6.908-5.5517-8.981-0.0986,6.1606,3.6358,8.1125,5.5517,8.981z" sodipodi:nodetypes="ccc" inkscape:connector-curvature="0" fill="#a6b4c9"/>
		<path style="color:black;enable-background:accumulate;" d="m443.3,565.7c1.7885-2.4569-3.071-11.165-3.8737-6.8786-1.7978-0.0835-2.4494,1.4595-1.2549,1.5933,3.3456,0.3747,4.0674,5.5428,5.1285,5.2853z" sodipodi:nodetypes="ccsc" inkscape:connector-curvature="0" fill="#a6b4c9"/>
		<path style="color:black;enable-background:accumulate;" d="m452.45,565.83c0.54279-1.9179,3.4143-11.92-0.12389-8.0178-3.79-5.0246-1.9613,7.5618,0.12389,8.0178z" sodipodi:nodetypes="ccc" inkscape:connector-curvature="0" fill="#a6b4c9"/>
		<path style="color:black;enable-background:accumulate;" d="m444.84,556.9c0.67046,7.4483,2.4786,8.6053,3.9958,11.369,1.931-6.7001-1.9602-9.8821-3.9958-11.369z" sodipodi:nodetypes="ccc" inkscape:connector-curvature="0" fill="#a6b4c9"/>
		<path style="color:black;enable-background:accumulate;" d="m455.88,567.92c2.9724-6.6067,2.1457-8.1496,2.2897-10.986-4.5898,5.1745-3.1341,9.0904-2.2897,10.986z" sodipodi:nodetypes="ccc" inkscape:connector-curvature="0" fill="#a6b4c9"/>
		<path style="color:black;enable-background:accumulate;" d="m460.39,566.29c1.3208-1.4943,8.2463-9.2747,3.2982-6.982-1.3823-5.515-5.0413,5.9468-3.2982,6.982z" sodipodi:nodetypes="ccc" inkscape:connector-curvature="0" fill="#a6b4c9"/>
		<path style="color:black;enable-background:accumulate;" d="m463.58,568.97c5.6455-5.5224,5.4425-7.2586,6.7335-9.9621-6.6845,3.6612-6.8116,7.8789-6.7335,9.9621z" sodipodi:nodetypes="ccc" inkscape:connector-curvature="0" fill="#a6b4c9"/>
		<path style="color:black;enable-background:accumulate;" d="m469.18,567.34c3.2545,0.0426,9.1316-7.628,4.6248-6.0833-0.8281-1.2963-2.6342-0.9932-2.1587-0.0932,1.3318,2.5199-3.2488,5.5624-2.4664,6.1768z" sodipodi:nodetypes="ccsc" inkscape:connector-curvature="0" fill="#a6b4c9"/>
		<path style="color:black;enable-background:accumulate;" d="m480.21,563.44c-7.6019,2.6286-8.2884,4.4265-10.742,6.4367,7.5736-0.29773,9.7753-4.3607,10.742-6.4367z" sodipodi:nodetypes="ccc" inkscape:connector-curvature="0" fill="#a6b4c9"/>
	</g>
</svg>
